<svg width="80" height="28" viewBox="0 0 80 28" fill="none" xmlns="http://www.w3.org/2000/svg">
<path d="M22.4147 23.2248L28.5023 3.91565H33.2351L39.3228 23.2248H35.9975L30.4728 5.8997H31.1969L25.74 23.2248H22.4147ZM25.8062 19.0414V16.0247H35.9433V19.0414H25.8062Z" fill="#0E0D17"/>
<path d="M38.7854 11.2768V8.7418H48.8818V11.2768H38.7854ZM48.8833 23.2248C47.9259 23.4039 46.9896 23.4822 46.0743 23.4596C45.1576 23.4371 44.3371 23.267 43.6131 22.9508C42.889 22.6332 42.3395 22.1304 41.9632 21.4425C41.632 20.8162 41.4574 20.178 41.4408 19.5246C41.4228 18.8728 41.4137 18.1352 41.4137 17.3118V4.72101H44.6322V17.1236C44.6322 17.7047 44.6382 18.215 44.6518 18.6515C44.6653 19.0896 44.7571 19.4479 44.9272 19.7249C45.2494 20.2608 45.7627 20.5603 46.4687 20.6235C47.1747 20.6868 47.9786 20.6507 48.8818 20.5167V23.2248H48.8833Z" fill="#0E0D17"/>
<path d="M57.0619 23.6267C55.6138 23.6267 54.3493 23.3001 53.2669 22.6483C52.1846 21.9964 51.3476 21.0947 50.753 19.9461C50.1584 18.7976 49.8618 17.4774 49.8618 15.9841C49.8618 14.4652 50.1659 13.1329 50.7741 11.9889C51.3822 10.8448 52.2267 9.95061 53.3076 9.30783C54.3884 8.66354 55.6409 8.3429 57.0619 8.3429C58.5191 8.3429 59.7881 8.66956 60.8705 9.32137C61.9513 9.9747 62.7928 10.8749 63.3919 12.0235C63.9911 13.1721 64.2906 14.4938 64.2906 15.9856C64.2906 17.4879 63.9896 18.8126 63.3859 19.9612C62.7823 21.1098 61.9393 22.0085 60.8584 22.6558C59.7761 23.3031 58.5101 23.6267 57.0619 23.6267ZM57.0619 20.5965C58.349 20.5965 59.3049 20.1674 59.9311 19.3094C60.5573 18.4513 60.8705 17.3434 60.8705 15.9841C60.8705 14.5811 60.5528 13.4611 59.9191 12.6256C59.2838 11.7901 58.3324 11.3717 57.0634 11.3717C56.1963 11.3717 55.4828 11.5659 54.9243 11.9542C54.3658 12.3426 53.9519 12.8845 53.6839 13.577C53.416 14.2695 53.282 15.0718 53.282 15.9841C53.282 17.387 53.6011 18.507 54.2409 19.3425C54.8792 20.1795 55.82 20.5965 57.0619 20.5965Z" fill="#0E0D17"/>
<path d="M65.8712 23.2248V8.7433H68.754V13.2353H69.1424V23.2248H65.8712ZM75.9149 23.2248V16.252C75.9149 15.7959 75.8833 15.2916 75.8216 14.7361C75.7584 14.1821 75.6139 13.6477 75.385 13.1344C75.1577 12.6211 74.8175 12.1981 74.3659 11.8669C73.9143 11.5357 73.3046 11.3701 72.5354 11.3701C72.1245 11.3701 71.718 11.4379 71.3146 11.5719C70.9126 11.7058 70.5483 11.9362 70.2217 12.2628C69.895 12.5895 69.6331 13.0366 69.4374 13.6041C69.2402 14.1716 69.1424 14.8987 69.1424 15.7823L67.2245 14.9649C67.2245 13.732 67.4639 12.6136 67.9426 11.6125C68.4213 10.6114 69.1243 9.8136 70.0546 9.21899C70.9849 8.62438 72.129 8.32782 73.4868 8.32782C74.5601 8.32782 75.4438 8.50696 76.1422 8.86372C76.8392 9.222 77.3932 9.67661 77.8041 10.2321C78.2151 10.7861 78.5192 11.3762 78.7164 12.0024C78.9136 12.6286 79.04 13.2202 79.0987 13.7787C79.156 14.3372 79.1861 14.7918 79.1861 15.1395V23.2248H75.9149Z" fill="#0E0D17"/>
<path d="M19.5319 6.52142L16.0832 11.4439L15.6993 11.9919L15.317 12.5398L9.0562 21.4801H0V16.5546H9.62522L12.4357 12.5398L12.8196 11.9919L13.2034 11.4439L16.6507 6.52142H19.5319Z" fill="#0E0D17"/>
<path d="M19.5319 0.5L16.0817 5.42551L15.6978 5.97346L15.314 6.52141L11.8667 11.4439L11.4828 11.9919L11.099 12.5398L9.0562 15.4587H0V10.2426L6.82226 0.5H19.5319Z" fill="#0E0D17"/>
<path d="M19.5319 12.5398L9.0562 27.5H0V22.576H9.62522L16.6537 12.5398H19.5319Z" fill="#0E0D17"/>
</svg>
